<svg width="186" height="58" viewBox="0 0 186 58" fill="none" xmlns="http://www.w3.org/2000/svg">
<path fill-rule="evenodd" clip-rule="evenodd" d="M7.82591 7.82585C0 15.6517 0 28.2471 0 53.4382V58H156.08C172.096 58 185.08 45.0163 185.08 29C185.08 12.9837 172.096 0 156.08 0H53.4386C28.2473 0 15.6518 0 7.82591 7.82585ZM134.768 21.342C137.268 21.342 137.375 19.7932 137.375 19.3696C137.375 17.9663 136.208 17.3776 134.768 17.3711C133.119 17.3711 132.161 18.177 132.161 19.3631V21.342H134.768ZM16.0753 17.8055H24.9274C30.1844 17.8055 33.3429 20.2754 33.3429 25.25C33.3429 29.8118 30.7774 32.5076 25.3967 32.5076H21.2063V38.3879H16.0753V17.8055ZM25.1794 29.0667C27.3365 29.0667 28.5248 27.9088 28.5248 25.4998C28.5248 23.1537 27.2214 21.8395 24.771 21.8395H21.2063V29.0667H25.1794ZM33.9059 30.6934C33.9059 25.6558 37.223 22.6841 42.3214 22.6841C47.4198 22.6841 50.7347 25.6558 50.7347 30.6934C50.7347 35.6896 47.4198 38.6374 42.3214 38.6374C37.223 38.6374 33.9059 35.6961 33.9059 30.6934ZM45.9818 30.6934C45.9818 27.9389 44.6349 26.314 42.3214 26.314C40.0079 26.314 38.6611 27.9389 38.6611 30.6934C38.6611 33.4131 40.0057 35.0097 42.3214 35.0097C44.6371 35.0097 45.9818 33.4131 45.9818 30.6934ZM56.1476 33.197H51.892C51.892 36.3316 54.1751 38.6386 59.6189 38.6321C64.9041 38.6321 67.689 36.7292 67.689 33.4707C67.6969 32.8537 67.5421 32.2455 67.24 31.7073C66.938 31.1692 66.4994 30.7202 65.9685 30.4056C64.8172 29.7496 63.466 29.5606 61.5588 29.3738L61.4097 29.3598C59.8169 29.2098 58.5005 29.0858 57.742 28.9046C56.8666 28.6852 56.6146 28.179 56.6146 27.5273C56.6146 26.4651 57.553 25.7439 59.6819 25.7439C62.028 25.7439 62.7774 26.5889 62.81 28.216H67.0134C67.0134 24.6187 64.6956 22.6788 59.6276 22.6788C55.3416 22.6788 51.9007 24.5253 51.9007 27.8727C51.8885 28.4597 52.0154 29.0413 52.271 29.5698C52.5266 30.0984 52.9037 30.559 53.3714 30.9139C54.3098 31.5721 56.0303 31.9154 58.2503 32.1044C59.4574 32.1732 60.6589 32.3183 61.8477 32.5388C62.6536 32.7278 62.9338 33.1644 62.9338 33.7271C62.9338 34.8545 62.0584 35.5735 59.5863 35.5735C56.8666 35.5735 56.1476 34.6351 56.1476 33.197ZM70.4675 33.0728V26.6277H68.1779V22.9348H70.033C70.7521 22.9348 71.0041 22.5286 71.0975 21.5901L71.3147 19.4331H75.2248V22.9348H80.1668V26.6277H75.2161V32.8209C75.2161 34.4153 75.9656 34.9171 77.8425 34.9171C78.5674 34.9126 79.2904 34.8398 80.0017 34.6999V38.2863C79.0142 38.5006 78.0078 38.6156 76.9974 38.6295C72.1814 38.6382 70.4675 36.5116 70.4675 33.0728ZM85.6414 33.197H81.3881C81.3881 36.3316 83.6712 38.6386 89.1171 38.6386C94.4045 38.6386 97.1872 36.7357 97.1872 33.4772C97.197 32.8597 97.0436 32.2506 96.7427 31.7113C96.4418 31.172 96.0039 30.7216 95.4733 30.4056C94.3219 29.7496 92.9708 29.5606 91.0635 29.3738L90.9001 29.3584C89.3156 29.209 88.0029 29.0852 87.2468 28.9046C86.3713 28.6852 86.1215 28.179 86.1215 27.5273C86.1215 26.4651 87.0599 25.7439 89.1866 25.7439C91.5327 25.7439 92.2843 26.5889 92.3147 28.216H96.5073C96.5073 24.6187 94.1894 22.6788 89.1215 22.6788C84.8355 22.6788 81.3968 24.5253 81.3968 27.8727C81.3842 28.4596 81.5107 29.0411 81.7659 29.5696C82.0211 30.0982 82.3978 30.5589 82.8652 30.9139C83.8037 31.5721 85.5241 31.9154 87.7464 32.1044C88.9534 32.1735 90.1549 32.3186 91.3437 32.5388C92.1475 32.7278 92.4299 33.1644 92.4299 33.7271C92.4299 34.8545 91.5523 35.5735 89.0824 35.5735C86.3605 35.5735 85.6414 34.6351 85.6414 33.197ZM97.9647 30.6934C97.9647 25.6558 101.249 22.6841 106.002 22.6841C110.538 22.6841 113.51 25.2192 113.51 29.503H109.317C109.287 27.5023 108.099 26.314 106.159 26.314C103.939 26.314 102.718 27.8455 102.718 30.6586C102.718 33.3805 103.969 35.0032 106.065 35.0032C108.099 35.0032 109.324 33.8453 109.35 31.8751H113.54C113.54 36.3152 110.382 38.6309 105.815 38.6309C101.188 38.6374 97.9647 35.6961 97.9647 30.6934ZM120.159 22.934H115.404V38.3876H120.159V31.7252C120.159 28.2843 121.566 26.6269 123.6 26.6269C125.101 26.6269 126.009 27.5327 126.009 29.7853C126.009 30.2546 125.976 31.0366 125.915 31.786H130.223C130.286 30.9736 130.379 29.5898 130.379 28.7209C130.379 24.7174 128.542 22.6841 125.383 22.6841C122.348 22.6841 120.687 24.4046 120.035 27.3459H119.972L120.159 22.934ZM136.903 22.937H132.148V38.3885H136.903V22.937ZM144.084 22.934H139.329V44.5851H144.078V38.7243C144.078 38.1637 143.985 36.6411 143.922 35.6072L143.921 35.5962H143.952C144.647 37.4796 146.385 38.6374 149.209 38.6374C153.553 38.6374 156.377 35.3138 156.377 30.3176C156.377 25.7492 153.562 22.6841 149.246 22.6841C146.587 22.6841 144.617 23.968 144.021 26.0946H143.991L144.084 22.934ZM148.057 26.314C150.215 26.314 151.655 28.0019 151.655 30.5044H151.653C151.653 33.1958 150.212 35.0097 148.088 35.0119C145.679 35.0119 144.084 33.5391 144.084 31.319V30.6304C144.084 28.0345 145.668 26.314 148.057 26.314ZM159.288 33.0728V26.6277H157.005V22.9348H158.849C159.568 22.9348 159.82 22.5286 159.914 21.5901L160.131 19.4331H164.041V22.9348H168.983V26.6277H164.041V32.8209C164.041 34.4153 164.791 34.9171 166.668 34.9171C167.392 34.9126 168.115 34.8398 168.827 34.6999V38.2863C167.839 38.5006 166.833 38.6156 165.822 38.6295C161.009 38.6382 159.288 36.5116 159.288 33.0728Z" fill="white"/>
</svg>
